<svg version="1.1" xmlns="http://www.w3.org/2000/svg" xmlns:xlink="http://www.w3.org/1999/xlink" width="358" height="161" viewBox="0,0,358,161"><g transform="translate(-23,-40.5)"><g data-paper-data="{&quot;isPaintingLayer&quot;:true}" fill-rule="nonzero" stroke-linejoin="miter" stroke-miterlimit="10" stroke-dasharray="" stroke-dashoffset="0" style="mix-blend-mode: normal"><path d="M347.5,129l-168,-76" fill="#ff0000" stroke="#ff0000" stroke-width="25" stroke-linecap="round"/><path d="M374.5,153c0,12.15026 -10.0736,22 -22.5,22c-12.4264,0 -22.5,-9.84974 -22.5,-22c0,-12.15026 10.0736,-22 22.5,-22c12.4264,0 22.5,9.84974 22.5,22z" fill="#ffcc7d" stroke="none" stroke-width="0" stroke-linecap="butt"/><path d="M103.5,170v-40h229v40z" fill="#4100ff" stroke="none" stroke-width="0" stroke-linecap="butt"/><path d="M109.5,150l-84,-2" fill="none" stroke="#67ff00" stroke-width="5" stroke-linecap="round"/><path d="M110.5,164l-62,4" fill="none" stroke="#67ff00" stroke-width="5" stroke-linecap="round"/><path d="M274.5,170l104,29" fill="none" stroke="#ffcc7d" stroke-width="5" stroke-linecap="round"/><path d="M116.5,108l152,23" fill="none" stroke="#ffcc7d" stroke-width="5" stroke-linecap="round"/><path d="M364.5,161c0,1.10457 -3.13401,2 -7,2c-3.86599,0 -7,-0.89543 -7,-2c0,-1.10457 3.13401,-2 7,-2c3.86599,0 7,0.89543 7,2z" fill="#000000" stroke="#ffffff" stroke-width="2" stroke-linecap="butt"/><path d="M331.67691,175.91465v-42.4949h16.52579v42.4949z" fill="#000000" stroke="#000000" stroke-width="2" stroke-linecap="butt"/><path d="M231.34172,156.35351l-35.07516,0.67452l0.67452,-11.46688h-26.30637" fill="none" stroke="#ffd600" stroke-width="2" stroke-linecap="round"/></g></g></svg>