<svg version="1.1" xmlns="http://www.w3.org/2000/svg" xmlns:xlink="http://www.w3.org/1999/xlink" width="358" height="113.86702" viewBox="0,0,358,113.86702"><g transform="translate(-23,-87.63298)"><g data-paper-data="{&quot;isPaintingLayer&quot;:true}" fill-rule="nonzero" stroke-linejoin="miter" stroke-miterlimit="10" stroke-dasharray="" stroke-dashoffset="0" style="mix-blend-mode: normal"><path d="" fill="#ff0000" stroke="#ff0000" stroke-width="25" stroke-linecap="round"/><path d="" fill="#ff0000" stroke="#ff0000" stroke-width="25" stroke-linecap="round"/><path d="M350.31649,142.14362l-48.02177,-21.72414" fill="#ff0000" stroke="#ff0000" stroke-width="25" stroke-linecap="round"/><path d="" fill="#ff0000" stroke="#ff0000" stroke-width="25" stroke-linecap="round"/><path d="" fill="#ff0000" stroke="#ff0000" stroke-width="25" stroke-linecap="round"/><path d="" fill="#ff0000" stroke="#ff0000" stroke-width="25" stroke-linecap="round"/><path d="M374.5,153c0,12.15026 -10.0736,22 -22.5,22c-12.4264,0 -22.5,-9.84974 -22.5,-22c0,-12.15026 10.0736,-22 22.5,-22c12.4264,0 22.5,9.84974 22.5,22z" fill="#ffcc7d" stroke="none" stroke-width="0" stroke-linecap="butt"/><path d="M103.5,170v-40h229v40z" fill="#4100ff" stroke="none" stroke-width="0" stroke-linecap="butt"/><path d="M109.5,150l-84,-2" fill="none" stroke="#67ff00" stroke-width="5" stroke-linecap="round"/><path d="M110.5,164l-62,4" fill="none" stroke="#67ff00" stroke-width="5" stroke-linecap="round"/><path d="M378.5,199l-104,-29" fill="none" stroke="#ffcc7d" stroke-width="5" stroke-linecap="round"/><path d="M116.5,107.06117l152,23" fill="none" stroke="#ffcc7d" stroke-width="5" stroke-linecap="round"/><path d="M364.5,161c0,1.10457 -3.13401,2 -7,2c-3.86599,0 -7,-0.89543 -7,-2c0,-1.10457 3.13401,-2 7,-2c3.86599,0 7,0.89543 7,2z" fill="#000000" stroke="#ffffff" stroke-width="2" stroke-linecap="butt"/><path d="M344.08711,160.48367l8.64882,11.53176" fill="none" stroke="#ff0000" stroke-width="2.5" stroke-linecap="round"/><path d="M96.00798,106.55718c0,-6.99977 6.72525,-12.6742 15.02128,-12.6742c8.29602,0 15.02128,5.67443 15.02128,12.6742c0,6.99977 -6.72525,12.6742 -15.02128,12.6742c-8.29602,0 -15.02128,-5.67443 -15.02128,-12.6742z" fill="#2900ff" stroke="#0021ff" stroke-width="12.5" stroke-linecap="butt"/></g></g></svg>